<svg xmlns="http://www.w3.org/2000/svg" xmlns:xlink="http://www.w3.org/1999/xlink" class="httpgd" width="600.00" height="340.00" viewBox="0 0 428.57 242.86">
<defs>
  <style type='text/css'><![CDATA[
    .httpgd line, .httpgd polyline, .httpgd polygon, .httpgd path, .httpgd rect, .httpgd circle {
      fill: none;
      stroke: #000000;
      stroke-linecap: round;
      stroke-linejoin: round;
      stroke-miterlimit: 10.00;
    }
  ]]></style>
<clipPath id="c0"><rect x="0.00" y="0.00" width="428.57" height="242.86"/></clipPath>
<clipPath id="c1"><rect x="59.04" y="59.04" width="339.29" height="110.38"/></clipPath>
<clipPath id="c2"><rect x="0.00" y="0.00" width="428.57" height="242.86"/></clipPath>
<clipPath id="c3"><rect x="59.04" y="59.04" width="339.29" height="110.38"/></clipPath>
</defs>
<rect width="100%" height="100%" style="stroke: none;fill: #FFFFFF;"/>
<g clip-path='url(#c0)'>
</g><g clip-path='url(#c1)'>
<polyline points="71.61,165.25 72.22,165.20 72.84,165.12 73.45,164.99 74.07,164.80 74.68,164.51 75.30,164.10 75.91,163.52 76.52,162.73 77.14,161.66 77.75,160.26 78.37,158.47 78.98,156.20 79.60,153.41 80.21,149.96 80.83,145.89 81.44,141.18 82.06,135.84 82.67,129.93 83.29,123.53 83.90,116.73 84.52,109.70 85.13,102.57 85.75,95.54 86.36,88.78 86.98,82.57 87.59,77.03 88.21,72.31 88.82,68.52 89.44,65.71 90.05,63.91 90.66,63.13 91.28,63.30 91.89,64.34 92.51,66.14 93.12,68.57 93.74,71.52 94.35,74.80 94.97,78.27 95.58,81.80 96.20,85.31 96.81,88.71 97.43,91.96 98.04,95.02 98.66,97.87 99.27,100.52 99.89,102.99 100.50,105.29 101.12,107.47 101.73,109.57 102.35,111.60 102.96,113.61 103.58,115.60 104.19,117.58 104.81,119.56 105.42,121.53 106.03,123.49 106.65,125.42 107.26,127.32 107.88,129.18 108.49,130.99 109.11,132.75 109.72,134.44 110.34,136.06 110.95,137.59 111.57,139.04 112.18,140.38 112.80,141.61 113.41,142.72 114.03,143.68 114.64,144.52 115.26,145.24 115.87,145.86 116.49,146.39 117.10,146.86 117.72,147.29 118.33,147.71 118.95,148.13 119.56,148.58 120.17,149.06 120.79,149.58 121.40,150.15 122.02,150.75 122.63,151.37 123.25,152.02 123.86,152.68 124.48,153.36 125.09,154.04 125.71,154.72 126.32,155.41 126.94,156.09 127.55,156.77 128.17,157.42 128.78,158.05 129.40,158.64 130.01,159.18 130.63,159.65 131.24,160.04 131.86,160.35 132.47,160.56 133.09,160.68 133.70,160.71 134.32,160.64 134.93,160.50 135.54,160.31 136.16,160.07 136.77,159.81 137.39,159.54 138.00,159.28 138.62,159.05 139.23,158.85 139.85,158.70 140.46,158.61 141.08,158.58 141.69,158.62 142.31,158.72 142.92,158.87 143.54,159.07 144.15,159.31 144.77,159.56 145.38,159.81 146.00,160.04 146.61,160.24 147.23,160.38 147.84,160.46 148.46,160.47 149.07,160.42 149.68,160.30 150.30,160.14 150.91,159.95 151.53,159.75 152.14,159.55 152.76,159.38 153.37,159.25 153.99,159.17 154.60,159.17 155.22,159.23 155.83,159.37 156.45,159.56 157.06,159.82 157.68,160.11 158.29,160.44 158.91,160.78 159.52,161.12 160.14,161.44 160.75,161.73 161.37,161.98 161.98,162.18 162.60,162.32 163.21,162.41 163.83,162.44 164.44,162.43 165.05,162.39 165.67,162.32 166.28,162.24 166.90,162.16 167.51,162.09 168.13,162.05 168.74,162.03 169.36,162.05 169.97,162.09 170.59,162.16 171.20,162.25 171.82,162.36 172.43,162.47 173.05,162.59 173.66,162.70 174.28,162.80 174.89,162.89 175.51,162.97 176.12,163.05 176.74,163.11 177.35,163.17 177.97,163.23 178.58,163.28 179.19,163.34 179.81,163.40 180.42,163.46 181.04,163.52 181.65,163.58 182.27,163.64 182.88,163.70 183.50,163.74 184.11,163.78 184.73,163.79 185.34,163.79 185.96,163.77 186.57,163.74 187.19,163.68 187.80,163.60 188.42,163.52 189.03,163.43 189.65,163.35 190.26,163.28 190.88,163.23 191.49,163.20 192.11,163.19 192.72,163.22 193.34,163.27 193.95,163.34 194.56,163.42 195.18,163.52 195.79,163.62 196.41,163.71 197.02,163.81 197.64,163.89 198.25,163.96 198.87,164.02 199.48,164.07 200.10,164.12 200.71,164.16 201.33,164.20 201.94,164.24 202.56,164.28 203.17,164.32 203.79,164.37 204.40,164.42 205.02,164.48 205.63,164.53 206.25,164.59 206.86,164.64 207.48,164.68 208.09,164.71 208.70,164.72 209.32,164.72 209.93,164.69 210.55,164.65 211.16,164.59 211.78,164.52 212.39,164.44 213.01,164.36 213.62,164.28 214.24,164.21 214.85,164.15 215.47,164.12 216.08,164.10 216.70,164.11 217.31,164.15 217.93,164.21 218.54,164.28 219.16,164.37 219.77,164.48 220.39,164.58 221.00,164.69 221.62,164.79 222.23,164.89 222.85,164.98 223.46,165.05 224.07,165.12 224.69,165.17 225.30,165.21 225.92,165.24 226.53,165.26 227.15,165.28 227.76,165.28 228.38,165.28 228.99,165.28 229.61,165.26 230.22,165.24 230.84,165.22 231.45,165.18 232.07,165.14 232.68,165.09 233.30,165.03 233.91,164.98 234.53,164.91 235.14,164.85 235.76,164.80 236.37,164.75 236.99,164.71 237.60,164.69 238.21,164.68 238.83,164.69 239.44,164.71 240.06,164.74 240.67,164.79 241.29,164.84 241.90,164.90 242.52,164.97 243.13,165.03 243.75,165.08 244.36,165.13 244.98,165.18 245.59,165.21 246.21,165.24 246.82,165.27 247.44,165.28 248.05,165.29 248.67,165.30 249.28,165.30 249.90,165.30 250.51,165.30 251.13,165.28 251.74,165.27 252.36,165.25 252.97,165.22 253.58,165.18 254.20,165.14 254.81,165.09 255.43,165.03 256.04,164.97 256.66,164.91 257.27,164.85 257.89,164.80 258.50,164.75 259.12,164.71 259.73,164.69 260.35,164.68 260.96,164.69 261.58,164.71 262.19,164.74 262.81,164.79 263.42,164.84 264.04,164.90 264.65,164.97 265.27,165.03 265.88,165.08 266.50,165.13 267.11,165.18 267.73,165.21 268.34,165.24 268.95,165.27 269.57,165.29 270.18,165.30 270.80,165.31 271.41,165.32 272.03,165.32 272.64,165.32 273.26,165.33 273.87,165.33 274.49,165.33 275.10,165.33 275.72,165.33 276.33,165.33 276.95,165.33 277.56,165.33 278.18,165.33 278.79,165.33 279.41,165.33 280.02,165.33 280.64,165.33 281.25,165.33 281.87,165.33 282.48,165.33 283.09,165.33 283.71,165.33 284.32,165.33 284.94,165.33 285.55,165.33 286.17,165.33 286.78,165.33 287.40,165.33 288.01,165.33 288.63,165.33 289.24,165.33 289.86,165.33 290.47,165.33 291.09,165.33 291.70,165.33 292.32,165.33 292.93,165.33 293.55,165.33 294.16,165.33 294.78,165.33 295.39,165.33 296.01,165.33 296.62,165.33 297.24,165.33 297.85,165.33 298.46,165.33 299.08,165.33 299.69,165.33 300.31,165.33 300.92,165.33 301.54,165.33 302.15,165.33 302.77,165.33 303.38,165.33 304.00,165.33 304.61,165.33 305.23,165.33 305.84,165.33 306.46,165.33 307.07,165.33 307.69,165.33 308.30,165.33 308.92,165.33 309.53,165.33 310.15,165.33 310.76,165.33 311.38,165.33 311.99,165.33 312.60,165.33 313.22,165.33 313.83,165.33 314.45,165.33 315.06,165.33 315.68,165.33 316.29,165.33 316.91,165.33 317.52,165.33 318.14,165.33 318.75,165.33 319.37,165.33 319.98,165.33 320.60,165.33 321.21,165.33 321.83,165.33 322.44,165.33 323.06,165.33 323.67,165.33 324.29,165.33 324.90,165.33 325.52,165.33 326.13,165.33 326.75,165.33 327.36,165.33 327.97,165.32 328.59,165.32 329.20,165.31 329.82,165.30 330.43,165.29 331.05,165.28 331.66,165.26 332.28,165.23 332.89,165.20 333.51,165.15 334.12,165.11 334.74,165.05 335.35,164.99 335.97,164.93 336.58,164.87 337.20,164.81 337.81,164.76 338.43,164.72 339.04,164.69 339.66,164.68 340.27,164.68 340.89,164.70 341.50,164.73 342.11,164.77 342.73,164.83 343.34,164.88 343.96,164.95 344.57,165.01 345.19,165.07 345.80,165.12 346.42,165.16 347.03,165.20 347.65,165.24 348.26,165.26 348.88,165.28 349.49,165.30 350.11,165.31 350.72,165.31 351.34,165.32 351.95,165.32 352.57,165.33 353.18,165.33 353.80,165.33 354.41,165.33 355.03,165.33 355.64,165.33 356.26,165.33 356.87,165.33 357.48,165.33 358.10,165.33 358.71,165.33 359.33,165.33 359.94,165.33 360.56,165.33 361.17,165.33 361.79,165.32 362.40,165.32 363.02,165.32 363.63,165.31 364.25,165.30 364.86,165.29 365.48,165.27 366.09,165.24 366.71,165.21 367.32,165.17 367.94,165.13 368.55,165.08 369.17,165.02 369.78,164.96 370.40,164.90 371.01,164.84 371.62,164.79 372.24,164.74 372.85,164.71 373.47,164.69 374.08,164.68 374.70,164.69 375.31,164.71 375.93,164.75 376.54,164.80 377.16,164.86 377.77,164.92 378.39,164.98 379.00,165.04 379.62,165.09 380.23,165.14 380.85,165.18 381.46,165.22 382.08,165.25 382.69,165.27 383.31,165.29 383.92,165.30 384.54,165.31 385.15,165.32 385.77,165.32" style="stroke-width: 0.75;stroke: #0000FF; stroke-dasharray: 4.00, 4.00;"/>
</g><g clip-path='url(#c2)'>
<line x1="82.90" y1="169.42" x2="364.52" y2="169.42" style="stroke-width: 0.75;"/>
<line x1="82.90" y1="169.42" x2="82.90" y2="176.62" style="stroke-width: 0.75;"/>
<line x1="176.77" y1="169.42" x2="176.77" y2="176.62" style="stroke-width: 0.75;"/>
<line x1="270.65" y1="169.42" x2="270.65" y2="176.62" style="stroke-width: 0.75;"/>
<line x1="364.52" y1="169.42" x2="364.52" y2="176.62" style="stroke-width: 0.75;"/>
<g><text x="82.90" y="195.34" text-anchor="middle" style="font-family: Arial;font-size: 12.00px;">0</text></g>
<g><text x="176.77" y="195.34" text-anchor="middle" style="font-family: Arial;font-size: 12.00px;">50</text></g>
<g><text x="270.65" y="195.34" text-anchor="middle" style="font-family: Arial;font-size: 12.00px;">100</text></g>
<g><text x="364.52" y="195.34" text-anchor="middle" style="font-family: Arial;font-size: 12.00px;">150</text></g>
<line x1="59.04" y1="165.33" x2="59.04" y2="83.21" style="stroke-width: 0.75;"/>
<line x1="59.04" y1="165.33" x2="51.84" y2="165.33" style="stroke-width: 0.75;"/>
<line x1="59.04" y1="137.96" x2="51.84" y2="137.96" style="stroke-width: 0.75;"/>
<line x1="59.04" y1="110.58" x2="51.84" y2="110.58" style="stroke-width: 0.75;"/>
<line x1="59.04" y1="83.21" x2="51.84" y2="83.21" style="stroke-width: 0.75;"/>
<g><text transform="translate(41.76,165.33) rotate(-90.00)" text-anchor="middle" style="font-family: Arial;font-size: 12.00px;">0.00</text></g>
<g><text transform="translate(41.76,110.58) rotate(-90.00)" text-anchor="middle" style="font-family: Arial;font-size: 12.00px;">0.04</text></g>
<polygon points="59.04,169.42 398.33,169.42 398.33,59.04 59.04,59.04" style="stroke-width: 0.75;" />
<g><text x="228.69" y="34.67" text-anchor="middle" style="font-family: Arial;font-size: 14.40px;font-weight: bold;">Probability-density</text></g>
<g><text x="228.69" y="224.14" text-anchor="middle" style="font-family: Arial;font-size: 12.00px;">N = 400   Bandwidth = 2.087</text></g>
<g><text transform="translate(12.96,114.23) rotate(-90.00)" text-anchor="middle" style="font-family: Arial;font-size: 12.00px;">Density</text></g>
</g><g clip-path='url(#c3)'>
<line x1="59.04" y1="165.33" x2="398.33" y2="165.33" style="stroke-width: 0.07;stroke: #BEBEBE;"/>
</g>
</svg>